<svg xmlns="http://www.w3.org/2000/svg" viewBox="0 0 454.22 232.41"><g id="b00d2a5a-3fb2-4e67-8e89-57bb36d0b29d" data-name="Layer 2"><g id="b9c6136a-819d-48cd-a092-3f4defdd195b" data-name="Layer 1"><path d="M18.61,57.63C25.5,52,36,45.39,49.93,37.45a424.32,424.32,0,0,1,45.74-22.4C112.28,8.14,127.79,3.45,142,1.11S167.1.33,174.47,5.93c5.16,5,6.42,11.59,3.75,20.06a96.27,96.27,0,0,1-12.68,25.78c-5.8,8.73-11.28,16.28-16.14,22.54-1.09,1.43-2.19,2.86-3.13,4-1.25,1.83.78,1.31,2.66.52l1.41-.39c11-2.86,22.09-5.47,33.21-7.81a4,4,0,0,1,4.7,2.47c.47,1.7-1.57,2.61-3.6,3-10.5,2.21-21,4.82-31.17,7.68-2.82.79-5.64,1.57-8.62,2.35a15.37,15.37,0,0,0-8.62,5.34c-6.57,8.72-13.15,17.32-19.73,26.05q-40.89,52.74-78.95,106.8a29,29,0,0,0-2,3.77c-1.41,3.65-3.13,5.74-8.61,3.13-.31-3.78,5.64-14.33,17.86-31.78s26-35.95,41.19-55.74,27.1-35,35.56-45.72c1.41-1.69,2.51-3.13,3.45-4.3.94-1.43-1.26-1.56-6.74-.39s-12.37,3-20.68,5.6-16.29,5.08-24,7.56S60.43,110.77,57,112c-.78.26-1.25.39-1.72.52-1.25.52-1.1.52-1.41.78,0,.13-.16.39-.63.78-3,2.74-15,7.82-18.95,6.38-5-5.86,13.79-12.37,18-13.93C77,98.4,102.1,91,127.32,84.2c4.38-1,6.58-2.34,9.24-5.6,11.59-13.54,44.95-56,30.23-68.37-6.42-4.69-16.13-5.6-29.45-2.74s-27.57,7.82-43.08,14.85A419.57,419.57,0,0,0,51.5,44.61c-13,7.68-22.56,14.07-28.35,19-8.93,7.16-13.79,13.54-14.73,19S12.34,92.8,23.15,96.58c4.07,1.3,5.17.52,6.11,0,.62-.78,1.25-.91,3.44.13,3.29,2.34,4.39,4.56,3.45,6.51-.78,2-3,2.61-6.27,2.08C-6.46,97.36-9,80.17,18.61,57.63Z"/><path d="M139.85,167.56c-6.42-1.56-9.4-6.12-9.24-13.8s6.73-17.85,19.58-30.22c4.85-4.43,8.77-7,11.74-7.69,4.86-1.43,8,.26,5.64,5.08-4.38,3.78-6.89,4.17-8.61,4a2.75,2.75,0,0,0-2.2.65c-30.54,29.31-19.26,42.07-6.26,36.08,4.23-2.08,10.18-8.73,13.47-14.33a11.13,11.13,0,0,0,.78-1c.63-.65.79-1.17-.31-1.82-3.76-3.13-7.36-9-5.64-13.16,2.35-4,14.26-1.56,14.57,9.38.63,8,11.28,7.69,15.82,4.17,4.07-3.13,5.33,1.82-2.19,4.69-8,2.6-11.91,1.17-13.94,0-1.41-1-2.67-1.17-3.92.91a59.08,59.08,0,0,1-8.62,10.55C153.16,166.91,146.27,169.12,139.85,167.56Z"/><path d="M194.52,167.56c-6.43-1.56-9.4-6.12-9.25-13.8s6.74-17.85,19.58-30.22c4.86-4.43,8.78-7,11.75-7.69,4.86-1.43,8,.26,5.64,5.08-4.38,3.78-6.89,4.17-8.61,4a2.75,2.75,0,0,0-2.2.65c-30.54,29.31-19.26,42.07-6.26,36.08,4.23-2.08,10.18-8.73,13.47-14.33a11.13,11.13,0,0,0,.78-1c.63-.65.79-1.17-.31-1.82-3.76-3.13-7.36-9-5.64-13.16,2.35-4,14.25-1.56,14.57,9.38.62,8,11.28,7.69,15.82,4.17,4.07-3.13,5.32,1.82-2.19,4.69-8,2.6-11.91,1.17-13.95,0-1.41-1-2.66-1.17-3.91.91a59.08,59.08,0,0,1-8.62,10.55C207.83,166.91,200.94,169.12,194.52,167.56Z"/><path d="M289.13,139.69c-8,5.86-16.14,11.59-24.6,16.93s-15.82,9-22.24,11.07-10.65,1.43-12.53-2.08c-1.1-3.26.94-8.34,6.11-15.37a134.37,134.37,0,0,1,20.68-21.75A129.2,129.2,0,0,1,284,110.25c9.55-4.69,18.33-6.38,26.16-5a15.56,15.56,0,0,1,4.23,1.57c1.72.78,2.35,1.3,5.64-1.44a110.42,110.42,0,0,0,10-8.59,83.62,83.62,0,0,0,8.3-10q13.4-18.56,21.15-28.52A219.75,219.75,0,0,1,383.74,32a203.67,203.67,0,0,1,23.81-19.54c5.48-3.91,16.45-5.73,17.39.78C424.47,16,421,21.43,414.6,29.37A341.18,341.18,0,0,1,382,63.63c-11.44,10.55-22.4,19.66-32.74,27.61a118.12,118.12,0,0,0-9.87,9,97,97,0,0,0-8.15,10.29q-16,22.08-31.95,43.38c-10.5,14.19-19.42,26-26.63,35.55-7.05,9.51-10.81,14.59-11.28,15-2.19,2.87-6.73,2.34-3.91-1.95,5.95-8.6,13.31-19.41,22.24-32.3q19.74-28.72,32.42-46.76c4.39-5.73,3-4.56-2.19-.26-.47.39-.94.91-1.41,1.3C303.54,128.62,297.12,133.7,289.13,139.69Zm-5.48-21.62A164.3,164.3,0,0,0,256.23,138c-8.46,7.55-14.41,13.8-17.85,18.88-3.14,4.69-4.39,7.56.62,5.34,7.52-3.52,17.7-9.64,30.7-18.62s26.32-19,40.26-30.09c2-1.56,2-2.47-.94-3C301.82,109.86,293.36,112.34,283.65,118.07ZM408.18,26.25C420.24,11,404,22.86,398.93,27c-5.48,4.82-11.59,10.81-18.32,17.71a253.27,253.27,0,0,0-16.76,19c-14.1,18.75-4.23,10,6.1.78,1.73-1.57,3.29-3,5-4.43A280.56,280.56,0,0,0,408.18,26.25Z"/><path d="M353.19,121.32a7.24,7.24,0,0,1,1.1-1.3c-2.51-3.91,10.34-11.59,13.16-7.94,1.41,2,.16,3.64-1.25,5.21a3,3,0,0,0-.63.65c-3.92,4.69-8.3,9.9-13,15.76a145.11,145.11,0,0,0-10.34,14.45c-1.72,3.39-.63,5.21,3.29,5.61,4.07.39,9.24-.14,15.66-1.57s12.38-2.86,17.7-4.43c5.49-1.69,8.62-2.73,9.72-3.25,3.28-1.57,5.48,1.3,1.41,3.64-6.74,3.13-15.67,6-26.63,8.6s-18.64,3.91-23.34,3.91C319.67,160.66,346.3,129.14,353.19,121.32Zm12.38-15.76c-.63-1.43,2-2.34,3.6-3.12.78-.13,1.25-.39,1.25-.52.16-2,2-3.26,4.55-3.13C386.72,99.31,368.7,111.82,365.57,105.56Z"/><path d="M434.33,122.89c-1.09,3.12-4.22,6.38-9.08,9.77a57.5,57.5,0,0,1-15.35,7.68c-5.17,1.69-9.09,1.56-11.44-.26a68.37,68.37,0,0,0-5.79,6.9c-2,2.74-3.29,5.21-3.6,7.43,0,3.25,2.66,4.69,8.14,4.29a82.37,82.37,0,0,0,19.42-4.29q11.28-3.72,20.68-7.43c6.27-2.6,10.18-4.43,11.91-5.34,3.6-1.95,8.77-.65.78,4.17q-4.69,2.73-16,7.81a198.59,198.59,0,0,1-23.65,8.6c-8.3,2.48-15.51,3.26-21.3,2.48s-8.62-4.3-8.46-10.68c.47-4.3,3.44-9.38,8.77-15.24a88.25,88.25,0,0,1,18.48-15.5c7.05-4.56,13.63-6.77,19.43-6.64Q436,118.2,434.33,122.89ZM404.89,137A66.15,66.15,0,0,0,416,132a68.26,68.26,0,0,0,10-6.64c2-2,2-2.47-1.88-1.56C419.45,125.1,393.45,140.08,404.89,137Z"/></g></g></svg>